<svg width="40" height="40" viewBox="0 0 40 40" fill="none" xmlns="http://www.w3.org/2000/svg">
<rect width="40" height="40" rx="20" fill="#374151"/>
<path d="M25.3284 27H14.6617V25.6667C14.6617 25.0622 14.8106 24.5044 15.1084 23.9933C15.4062 23.4822 15.8106 23.0778 16.3217 22.78C16.8329 22.4822 17.3906 22.3333 17.9951 22.3333H21.9951C22.5995 22.3333 23.1573 22.4822 23.6684 22.78C24.1795 23.0778 24.584 23.4822 24.8817 23.9933C25.1795 24.5044 25.3284 25.0622 25.3284 25.6667V27ZM19.9951 21C19.2751 21 18.604 20.8178 17.9817 20.4533C17.3773 20.0978 16.8973 19.6178 16.5417 19.0133C16.1773 18.3911 15.9951 17.72 15.9951 17C15.9951 16.28 16.1773 15.6089 16.5417 14.9867C16.8973 14.3822 17.3773 13.9022 17.9817 13.5467C18.604 13.1822 19.2751 13 19.9951 13C20.7151 13 21.3862 13.1822 22.0084 13.5467C22.6129 13.9022 23.0929 14.3822 23.4484 14.9867C23.8129 15.6089 23.9951 16.28 23.9951 17C23.9951 17.72 23.8129 18.3911 23.4484 19.0133C23.0929 19.6178 22.6129 20.0978 22.0084 20.4533C21.3862 20.8178 20.7151 21 19.9951 21Z" fill="#D1D5DB"/>
</svg>
