<svg width="21" height="20" viewBox="0 0 21 20" fill="none" xmlns="http://www.w3.org/2000/svg">
<path d="M10.42 1.86657C9.28667 1.86657 8.20334 2.08879 7.17 2.53324C6.18111 2.95546 5.30056 3.54991 4.52834 4.31657C3.75611 5.08324 3.15889 5.96657 2.73667 6.96657C2.30334 7.99991 2.08667 9.07768 2.08667 10.1999C2.08667 11.411 2.33111 12.561 2.82 13.6499C3.29778 14.7055 3.97 15.6221 4.83667 16.3999C5.70334 17.1777 6.68667 17.7499 7.78667 18.1166C7.97556 18.1499 8.11723 18.1221 8.21167 18.0332C8.30611 17.9444 8.35334 17.8388 8.35334 17.7166V16.1666C7.43111 16.3332 6.72 16.2777 6.22 15.9999C5.89778 15.811 5.67 15.5388 5.53667 15.1832C5.48111 15.0166 5.37556 14.8166 5.22 14.5832C5.02 14.2832 4.84223 14.0888 4.68667 13.9999C4.48667 13.8999 4.36445 13.7944 4.32 13.6832C4.25334 13.5388 4.36723 13.4638 4.66167 13.4582C4.95611 13.4527 5.23667 13.561 5.50334 13.7832C5.68111 13.9277 5.83111 14.1055 5.95334 14.3166C6.28667 14.861 6.72556 15.1555 7.27 15.1999C7.63667 15.2332 8.00889 15.1666 8.38667 14.9999C8.45334 14.4999 8.63111 14.1277 8.92 13.8832C8.19778 13.8055 7.59778 13.6555 7.12 13.4332C6.49778 13.1555 6.02556 12.7444 5.70334 12.1999C5.31445 11.5777 5.12 10.7666 5.12 9.76657C5.12 8.89991 5.40889 8.15546 5.98667 7.53324C5.89778 7.31102 5.84223 7.06102 5.82 6.78324C5.78667 6.29435 5.87 5.80546 6.07 5.31657L6.20334 5.29991C6.32556 5.29991 6.46445 5.31657 6.62 5.34991C6.83111 5.39435 7.06445 5.47213 7.32 5.58324C7.64223 5.72768 7.98667 5.92213 8.35334 6.16657C9.02 5.9888 9.71445 5.89991 10.4367 5.89991C11.1589 5.89991 11.8533 5.9888 12.52 6.16657C13.1867 5.72213 13.77 5.44435 14.27 5.33324C14.5144 5.2888 14.6978 5.28324 14.82 5.31657C15.0089 5.80546 15.0867 6.29435 15.0533 6.78324C15.0422 7.06102 14.9922 7.31102 14.9033 7.53324C15.47 8.15546 15.7533 8.89991 15.7533 9.76657C15.7533 10.7666 15.5644 11.5832 15.1867 12.2166C14.8533 12.7499 14.3756 13.1555 13.7533 13.4332C13.2756 13.6555 12.6756 13.8055 11.9533 13.8832C12.12 14.0277 12.2533 14.2166 12.3533 14.4499C12.4644 14.7277 12.52 15.0499 12.52 15.4166L12.5033 17.7166C12.5033 17.8499 12.5506 17.9582 12.645 18.0416C12.7394 18.1249 12.8811 18.1499 13.07 18.1166C14.1922 17.7388 15.1839 17.1555 16.045 16.3666C16.9061 15.5777 17.5728 14.6499 18.045 13.5832C18.5172 12.5166 18.7533 11.3888 18.7533 10.1999C18.7533 9.07768 18.5367 7.99991 18.1033 6.96657C17.6811 5.96657 17.0839 5.08324 16.3117 4.31657C15.5394 3.54991 14.6589 2.95546 13.67 2.53324C12.6367 2.08879 11.5533 1.86657 10.42 1.86657Z" fill="#F3F4F6"/>
</svg>
