<svg width="40" height="40" viewBox="0 0 40 40" fill="none" xmlns="http://www.w3.org/2000/svg">
<rect width="40" height="40" rx="16" fill="#8E6FF7" fill-opacity="0.1"/>
<path d="M12.5 12.5H27.5C27.7333 12.5 27.9305 12.5806 28.0916 12.7417C28.2527 12.9028 28.3333 13.1 28.3333 13.3333V26.6667C28.3333 26.9 28.2527 27.0972 28.0916 27.2583C27.9305 27.4194 27.7333 27.5 27.5 27.5H12.5C12.2666 27.5 12.0694 27.4194 11.9083 27.2583C11.7472 27.0972 11.6666 26.9 11.6666 26.6667V13.3333C11.6666 13.1 11.7472 12.9028 11.9083 12.7417C12.0694 12.5806 12.2666 12.5 12.5 12.5ZM13.3333 14.1667V25.8333H26.6666V14.1667H13.3333ZM26.6666 20L23.7166 22.95L22.55 21.7667L24.3166 20L22.55 18.2333L23.7166 17.05L26.6666 20ZM15.6833 20L17.45 21.7667L16.2833 22.95L13.3333 20L16.2833 17.05L17.45 18.2333L15.6833 20ZM19.3666 24.1667H17.6L20.6333 15.8333H22.4L19.3666 24.1667Z" fill="#8E6FF7"/>
</svg>
