<svg width="18" height="17" viewBox="0 0 18 17" fill="none" xmlns="http://www.w3.org/2000/svg">
<path d="M5.84832 10.3967C6.22166 10.5389 6.5261 10.7789 6.76166 11.1167C6.99721 11.4544 7.11499 11.8322 7.11499 12.25C7.11499 12.6144 7.0261 12.95 6.84832 13.2567C6.67055 13.5633 6.42832 13.8056 6.12166 13.9833C5.81499 14.1611 5.47943 14.25 5.11499 14.25C4.75055 14.25 4.41499 14.1611 4.10832 13.9833C3.80166 13.8056 3.55943 13.5633 3.38166 13.2567C3.20388 12.95 3.11499 12.6144 3.11499 12.25C3.11499 11.8233 3.23943 11.4367 3.48832 11.09C3.73721 10.7433 4.05721 10.5033 4.44832 10.37V6.13C4.05721 5.99667 3.73721 5.75667 3.48832 5.41C3.23943 5.06333 3.11499 4.67667 3.11499 4.25C3.11499 3.88556 3.20388 3.55 3.38166 3.24333C3.55943 2.93667 3.80166 2.69444 4.10832 2.51667C4.41499 2.33889 4.75055 2.25 5.11499 2.25C5.47943 2.25 5.81499 2.33889 6.12166 2.51667C6.42832 2.69444 6.67055 2.93667 6.84832 3.24333C7.0261 3.55 7.11499 3.88556 7.11499 4.25C7.11499 4.67667 6.99055 5.06333 6.74166 5.41C6.49277 5.75667 6.17277 5.99667 5.78166 6.13V8.25C6.0661 8.03667 6.37721 7.87222 6.71499 7.75667C7.05277 7.64111 7.40832 7.58333 7.78166 7.58333H10.4483C10.9017 7.58333 11.3083 7.44556 11.6683 7.17C12.0283 6.89444 12.2661 6.53889 12.3817 6.10333C12.0083 5.96111 11.7039 5.72111 11.4683 5.38333C11.2328 5.04556 11.115 4.66778 11.115 4.25C11.115 3.88556 11.2039 3.55 11.3817 3.24333C11.5594 2.93667 11.8017 2.69444 12.1083 2.51667C12.415 2.33889 12.7505 2.25 13.115 2.25C13.4794 2.25 13.815 2.33889 14.1217 2.51667C14.4283 2.69444 14.6705 2.93667 14.8483 3.24333C15.0261 3.55 15.115 3.88556 15.115 4.25C15.115 4.68556 14.9861 5.07889 14.7283 5.43C14.4705 5.78111 14.1372 6.02333 13.7283 6.15667C13.6394 6.67222 13.4394 7.14111 13.1283 7.56333C12.8172 7.98556 12.4283 8.31667 11.9617 8.55667C11.495 8.79667 10.9905 8.91667 10.4483 8.91667H7.78166C7.32832 8.91667 6.92166 9.05444 6.56166 9.33C6.20166 9.60556 5.96388 9.96111 5.84832 10.3967ZM5.11499 11.5833C4.92832 11.5833 4.77055 11.6478 4.64166 11.7767C4.51277 11.9056 4.44832 12.0633 4.44832 12.25C4.44832 12.4367 4.51277 12.5944 4.64166 12.7233C4.77055 12.8522 4.92832 12.9167 5.11499 12.9167C5.30166 12.9167 5.45943 12.8522 5.58832 12.7233C5.71721 12.5944 5.78166 12.4367 5.78166 12.25C5.78166 12.0633 5.71721 11.9056 5.58832 11.7767C5.45943 11.6478 5.30166 11.5833 5.11499 11.5833ZM5.11499 3.58333C4.92832 3.58333 4.77055 3.64778 4.64166 3.77667C4.51277 3.90556 4.44832 4.06333 4.44832 4.25C4.44832 4.43667 4.51277 4.59444 4.64166 4.72333C4.77055 4.85222 4.92832 4.91667 5.11499 4.91667C5.30166 4.91667 5.45943 4.85222 5.58832 4.72333C5.71721 4.59444 5.78166 4.43667 5.78166 4.25C5.78166 4.06333 5.71721 3.90556 5.58832 3.77667C5.45943 3.64778 5.30166 3.58333 5.11499 3.58333ZM13.115 3.58333C12.9283 3.58333 12.7705 3.64778 12.6417 3.77667C12.5128 3.90556 12.4483 4.06333 12.4483 4.25C12.4483 4.43667 12.5128 4.59444 12.6417 4.72333C12.7705 4.85222 12.9283 4.91667 13.115 4.91667C13.3017 4.91667 13.4594 4.85222 13.5883 4.72333C13.7172 4.59444 13.7817 4.43667 13.7817 4.25C13.7817 4.06333 13.7172 3.90556 13.5883 3.77667C13.4594 3.64778 13.3017 3.58333 13.115 3.58333Z" fill="#22C55E"/>
</svg>
